<svg xmlns="http://www.w3.org/2000/svg" width="62.123" height="63" viewBox="0 0 62.123 63">
  <g id="noun-customs-clearance-3263508" transform="translate(-92.126 -18.485)">
    <path id="Path_103" data-name="Path 103" d="M149.774,259.78a1.054,1.054,0,0,0-1.054,1.054v4.879a1.054,1.054,0,0,0,1.054,1.054h4.879a1.054,1.054,0,0,0,1.054-1.054v-4.879a1.054,1.054,0,0,0-1.054-1.054Zm3.825,4.879h-2.771v-2.771H153.6Z" transform="translate(-49.777 -212.23)" fill="#1f7fa0"/>
    <path id="Path_104" data-name="Path 104" d="M231.334,266.769h4.879a1.054,1.054,0,0,0,1.054-1.054v-4.879a1.054,1.054,0,0,0-1.054-1.054h-4.88a1.054,1.054,0,0,0-1.054,1.054v4.879A1.054,1.054,0,0,0,231.334,266.769Zm1.054-4.879h2.771v2.771h-2.771Z" transform="translate(-121.513 -212.232)" fill="#1f7fa0"/>
    <path id="Path_105" data-name="Path 105" d="M160.656,210.244a1.054,1.054,0,0,0-1.054-1.054h-9.823a1.054,1.054,0,1,0,0,2.108H159.6a1.053,1.053,0,0,0,1.053-1.054Z" transform="translate(-49.781 -167.734)" fill="#1f7fa0"/>
    <path id="Path_106" data-name="Path 106" d="M154.247,47.365a1.489,1.489,0,0,0-.026-.259l0-.006a1.455,1.455,0,0,0-.073-.241c-.009-.024-.02-.047-.031-.07a1.394,1.394,0,0,0-.091-.169c-.014-.022-.026-.043-.04-.064a1.511,1.511,0,0,0-.167-.2l-8.335-8.335a1.462,1.462,0,0,0-.2-.167c-.021-.014-.042-.026-.063-.04a1.439,1.439,0,0,0-.172-.092c-.022-.01-.044-.021-.067-.03a1.472,1.472,0,0,0-.511-.1l-.027,0h-9.886v0H131.6v0H121.068a1.476,1.476,0,0,0-1.476,1.476v18.9H95.078V21.436h10.034V33.325a1.475,1.475,0,0,0,2.331,1.2l2.487-1.771,2.483,1.771a1.468,1.468,0,0,0,1.712,0l2.487-1.771,2.483,1.771a1.474,1.474,0,0,0,2.331-1.2V21.436H131.6v15.1h2.951V19.961a1.477,1.477,0,0,0-1.476-1.476H93.6a1.477,1.477,0,0,0-1.476,1.476V59.438A1.477,1.477,0,0,0,93.6,60.913h25.99v19.1a1.476,1.476,0,0,0,1.476,1.476h31.707a1.476,1.476,0,0,0,1.476-1.476V47.4c0-.01,0-.019,0-.03Zm-46.185-25.93h10.413v9.026l-1.007-.721a1.482,1.482,0,0,0-1.712,0l-2.487,1.771-2.483-1.771a1.475,1.475,0,0,0-1.712,0l-1.012.717Zm37.853,21.186,3.3,3.3h-3.3Zm5.384,35.91H122.544v-38h20.421v6.86a1.476,1.476,0,0,0,1.476,1.476h6.86Z" fill="#1f7fa0"/>
    <path id="Path_107" data-name="Path 107" d="M457.757,407.442l-5.334,6.9-2.267-2.129a1.476,1.476,0,1,0-2.02,2.152l3.452,3.24a1.477,1.477,0,0,0,1.01.4c.039,0,.079,0,.117,0a1.476,1.476,0,0,0,1.05-.569l6.327-8.187a1.476,1.476,0,0,0-2.336-1.8Z" transform="translate(-312.718 -341.602)" fill="#1f7fa0"/>
    <path id="Path_108" data-name="Path 108" d="M374.564,295.247h3.728a1.054,1.054,0,0,0,1.054-1.054v-3.728a1.054,1.054,0,0,0-1.054-1.054h-3.728a1.054,1.054,0,0,0-1.054,1.054v3.728A1.054,1.054,0,0,0,374.564,295.247Zm1.054-3.728h1.62v1.62h-1.62Z" transform="translate(-247.491 -238.292)" fill="#1f7fa0"/>
    <path id="Path_109" data-name="Path 109" d="M441.134,289.41a1.054,1.054,0,1,0,0,2.108h9.348a1.054,1.054,0,0,0,0-2.108Z" transform="translate(-306.042 -238.291)" fill="#1f7fa0"/>
    <path id="Path_110" data-name="Path 110" d="M445.807,322.468a1.054,1.054,0,0,0,0-2.108h-4.674a1.054,1.054,0,0,0,0,2.108Z" transform="translate(-306.041 -265.513)" fill="#1f7fa0"/>
    <path id="Path_111" data-name="Path 111" d="M379.343,360.644a1.054,1.054,0,0,0-1.054-1.054h-3.728a1.054,1.054,0,0,0-1.054,1.054v3.728a1.054,1.054,0,0,0,1.054,1.054h3.728a1.054,1.054,0,0,0,1.054-1.054Zm-2.108,2.673h-1.62V361.7h1.62Z" transform="translate(-247.488 -300.018)" fill="#1f7fa0"/>
    <path id="Path_112" data-name="Path 112" d="M450.477,377.178a1.054,1.054,0,0,0,0-2.108h-9.348a1.054,1.054,0,0,0,0,2.108Z" transform="translate(-306.038 -313.634)" fill="#1f7fa0"/>
  </g>
</svg>
