<svg xmlns="http://www.w3.org/2000/svg" width="22.868" height="22.868" viewBox="0 0 22.868 22.868">
  <path id="Icon_awesome-linkedin" data-name="Icon awesome-linkedin" d="M21.235,2.25H1.628A1.641,1.641,0,0,0,0,3.9V23.47a1.641,1.641,0,0,0,1.628,1.649H21.235a1.645,1.645,0,0,0,1.633-1.649V3.9A1.645,1.645,0,0,0,21.235,2.25ZM6.912,21.851H3.522V10.938H6.917V21.851ZM5.217,9.447A1.965,1.965,0,1,1,7.182,7.482,1.966,1.966,0,0,1,5.217,9.447Zm14.4,12.4H16.227V16.543c0-1.266-.026-2.894-1.761-2.894-1.766,0-2.037,1.378-2.037,2.8v5.4H9.04V10.938h3.252v1.491h.046a3.57,3.57,0,0,1,3.211-1.761c3.43,0,4.068,2.261,4.068,5.2Z" transform="translate(0 -2.25)" fill="#1f7fa0"/>
</svg>
