<svg xmlns="http://www.w3.org/2000/svg" width="26.629" height="18.724" viewBox="0 0 26.629 18.724">
  <path id="Icon_awesome-youtube" data-name="Icon awesome-youtube" d="M27.123,7.43a3.346,3.346,0,0,0-2.354-2.37c-2.077-.56-10.4-.56-10.4-.56s-8.327,0-10.4.56A3.346,3.346,0,0,0,1.606,7.43a35.1,35.1,0,0,0-.556,6.451,35.1,35.1,0,0,0,.556,6.451,3.3,3.3,0,0,0,2.354,2.332c2.077.56,10.4.56,10.4.56s8.327,0,10.4-.56a3.3,3.3,0,0,0,2.354-2.332,35.1,35.1,0,0,0,.556-6.451,35.1,35.1,0,0,0-.556-6.451ZM11.641,17.84V9.921l6.96,3.96-6.96,3.959Z" transform="translate(-1.05 -4.5)" fill="#1f7fa0"/>
</svg>
