<svg xmlns="http://www.w3.org/2000/svg" width="63" height="63" viewBox="0 0 63 63">
  <g id="noun-bookkeeping-3144452" transform="translate(-87.5 -17.5)">
    <path id="Path_70" data-name="Path 70" d="M146.563,29.05H128.45v-4.2a7.359,7.359,0,0,0-7.35-7.35H95.9a7.359,7.359,0,0,0-7.35,7.35V25.9a1.05,1.05,0,0,0,1.05,1.05h5.25v2.1H91.437A3.942,3.942,0,0,0,87.5,32.988V66.062A3.942,3.942,0,0,0,91.437,70H112.59a5.275,5.275,0,0,1-1.99,3.15l-1.4,1.05h-.7a2.1,2.1,0,0,0-2.1,2.1v3.15a1.05,1.05,0,0,0,1.05,1.05h23.1a1.05,1.05,0,0,0,1.05-1.05V76.3a2.1,2.1,0,0,0-2.1-2.1h-.7l-1.4-1.05A5.275,5.275,0,0,1,125.41,70h21.153a3.942,3.942,0,0,0,3.938-3.937V32.988a3.942,3.942,0,0,0-3.937-3.937Zm0,2.1a1.839,1.839,0,0,1,1.837,1.837V61.6h-4.2V33.25a1.05,1.05,0,0,0-1.05-1.05h-14.7V31.15Zm-45.413,6.3h6.3v4.2h-6.3Zm16.8-6.3h4.2v4.2h-4.2Zm-2.1,4.2h-6.3v-4.2h6.3Zm6.3-6.3h-4.2v-4.2h4.2Zm-6.3,0h-6.3v-4.2h6.3Zm-8.4,0h-6.3v-4.2h6.3Zm0,2.1v4.2h-6.3v-4.2Zm2.1,6.3h6.3v4.2h-6.3Zm8.4,0h4.2v4.2h-4.2Zm6.3-3.15H142.1V61.6H124.25Zm2.1-9.45V32.2h-2.1V23.8a1.05,1.05,0,0,0-1.05-1.05H100.1a1.05,1.05,0,0,0-1.05,1.05V42.7a1.05,1.05,0,0,0,1.05,1.05h22.05V61.6H119V52.144a1.047,1.047,0,0,0-.075-.384l-2.1-5.25a1.05,1.05,0,0,0-1.95,0l-2.1,5.25a1.048,1.048,0,0,0-.075.384V61.6h-5.62A9.445,9.445,0,0,0,96.95,45.788V19.6H121.1a5.256,5.256,0,0,1,5.25,5.25ZM114.8,53.2h2.1v8.4h-2.1Zm.5-2.1.549-1.373L116.4,51.1ZM93.8,54.25a7.359,7.359,0,1,1,2.155,5.195A7.349,7.349,0,0,1,93.8,54.25Zm-3.15-29.4a5.259,5.259,0,0,1,4.2-5.145V24.85Zm.788,6.3H94.85V47.215A9.434,9.434,0,0,0,95.22,61.6H89.6V32.988a1.839,1.839,0,0,1,1.837-1.837ZM129.5,78.4h-21V76.3h21Zm-4.093-4.2H112.593a7.4,7.4,0,0,0,2.131-4.2h8.553a7.4,7.4,0,0,0,2.131,4.2Zm21.155-6.3H91.437A1.839,1.839,0,0,1,89.6,66.063V63.7h58.8v2.363a1.839,1.839,0,0,1-1.837,1.838Z" fill="#1f7fa0"/>
    <path id="Path_71" data-name="Path 71" d="M179.31,281.716l-1.926-.482a.451.451,0,0,1-.092-.841,1.8,1.8,0,0,1,1.6,0l.83.415h0a1.05,1.05,0,1,0,.939-1.878l-.83-.415a3.867,3.867,0,0,0-.69-.263v-1.532h-2.1v1.532a3.824,3.824,0,0,0-.69.264,2.551,2.551,0,0,0,.522,4.757l1.926.482a.451.451,0,0,1,.092.841,1.8,1.8,0,0,1-1.6,0l-.83-.415a1.05,1.05,0,1,0-.939,1.878l.83.415h0a3.858,3.858,0,0,0,.69.263v1.532h2.1v-1.532a3.824,3.824,0,0,0,.69-.264,2.551,2.551,0,0,0-.522-4.757Z" transform="translate(-76.943 -228.112)" fill="#1f7fa0"/>
    <path id="Path_72" data-name="Path 72" d="M412.3,182.35h11.55a1.05,1.05,0,0,0,1.05-1.05v-5.25a1.05,1.05,0,0,0-1.05-1.05H412.3a1.05,1.05,0,0,0-1.05,1.05v5.25a1.05,1.05,0,0,0,1.05,1.05Zm10.5-2.1h-9.45V177.1h9.45Z" transform="translate(-284.9 -138.6)" fill="#1f7fa0"/>
    <path id="Path_73" data-name="Path 73" d="M412.3,260.05h4.2a1.05,1.05,0,0,0,1.05-1.05v-4.2a1.05,1.05,0,0,0-1.05-1.05h-4.2a1.05,1.05,0,0,0-1.05,1.05V259a1.05,1.05,0,0,0,1.05,1.05Zm3.15-2.1h-2.1v-2.1h2.1Z" transform="translate(-284.9 -207.9)" fill="#1f7fa0"/>
    <path id="Path_74" data-name="Path 74" d="M416.5,321.3a1.05,1.05,0,0,0,1.05-1.05v-4.2A1.05,1.05,0,0,0,416.5,315h-4.2a1.05,1.05,0,0,0-1.05,1.05v4.2a1.05,1.05,0,0,0,1.05,1.05Zm-1.05-2.1h-2.1v-2.1h2.1Z" transform="translate(-284.9 -261.8)" fill="#1f7fa0"/>
    <path id="Path_75" data-name="Path 75" d="M477.75,315h-4.2a1.05,1.05,0,0,0-1.05,1.05v4.2a1.05,1.05,0,0,0,1.05,1.05h4.2a1.05,1.05,0,0,0,1.05-1.05v-4.2a1.05,1.05,0,0,0-1.05-1.05Zm-1.05,4.2h-2.1v-2.1h2.1Z" transform="translate(-338.8 -261.8)" fill="#1f7fa0"/>
    <path id="Path_76" data-name="Path 76" d="M477.75,253.75h-4.2a1.05,1.05,0,0,0-1.05,1.05V259a1.05,1.05,0,0,0,1.05,1.05h4.2A1.05,1.05,0,0,0,478.8,259v-4.2a1.05,1.05,0,0,0-1.05-1.05Zm-1.05,4.2h-2.1v-2.1h2.1Z" transform="translate(-338.8 -207.9)" fill="#1f7fa0"/>
  </g>
</svg>
