<svg xmlns="http://www.w3.org/2000/svg" width="63" height="63" viewBox="0 0 63 63">
  <g id="noun-organize-financial-records-2447934" transform="translate(-87.5 -17.5)">
    <path id="Path_77" data-name="Path 77" d="M226.45,21.7H206.869l-4.383-3.5a3.149,3.149,0,0,0-1.971-.7H188.65a3.15,3.15,0,0,0-3.15,3.15V25.9h-4.2a1.05,1.05,0,0,0-1.05,1.05V30.1h-4.2A1.05,1.05,0,0,0,175,31.15V32.2h42V58.45a5.2,5.2,0,0,0,1.077,3.15H206.5v2.1h15.75a5.256,5.256,0,0,0,5.25-5.25V22.75a1.05,1.05,0,0,0-1.05-1.05Zm-44.1,8.4V28H221.2V57.4h-2.1V31.15a1.05,1.05,0,0,0-1.05-1.05ZM225.4,58.45a3.143,3.143,0,0,1-6.107,1.05h2.957a1.05,1.05,0,0,0,1.05-1.05V26.95a1.05,1.05,0,0,0-1.05-1.05H187.6V20.65a1.05,1.05,0,0,1,1.05-1.05h11.865a1.031,1.031,0,0,1,.656.233l4.673,3.737a1.05,1.05,0,0,0,.656.23h18.9Z" transform="translate(-77 0)" fill="#1f7fa0"/>
    <path id="Path_78" data-name="Path 78" d="M297.5,52.5h2.1v2.1h-2.1Z" transform="translate(-184.8 -30.8)" fill="#1f7fa0"/>
    <path id="Path_79" data-name="Path 79" d="M332.5,52.5h2.1v2.1h-2.1Z" transform="translate(-215.6 -30.8)" fill="#1f7fa0"/>
    <path id="Path_80" data-name="Path 80" d="M367.5,52.5h2.1v2.1h-2.1Z" transform="translate(-246.4 -30.8)" fill="#1f7fa0"/>
    <path id="Path_81" data-name="Path 81" d="M91.7,203.7h23.1a4.2,4.2,0,0,0,4.2-4.2V161.7a4.2,4.2,0,0,0-4.2-4.2H91.7a4.2,4.2,0,0,0-4.2,4.2v37.8a4.2,4.2,0,0,0,4.2,4.2Zm-2.1-42a2.1,2.1,0,0,1,2.1-2.1h23.1a2.1,2.1,0,0,1,2.1,2.1v37.8a2.1,2.1,0,0,1-2.1,2.1H91.7a2.1,2.1,0,0,1-2.1-2.1Z" transform="translate(0 -123.2)" fill="#1f7fa0"/>
    <path id="Path_82" data-name="Path 82" d="M123.55,220.5h21a1.05,1.05,0,0,0,1.05-1.05v-8.4a1.05,1.05,0,0,0-1.05-1.05h-21a1.05,1.05,0,0,0-1.05,1.05v8.4a1.05,1.05,0,0,0,1.05,1.05Zm1.05-8.4h18.9v6.3H124.6Z" transform="translate(-30.8 -169.4)" fill="#1f7fa0"/>
    <path id="Path_83" data-name="Path 83" d="M123.55,321.3h4.2a1.05,1.05,0,0,0,1.05-1.05v-4.2a1.05,1.05,0,0,0-1.05-1.05h-4.2a1.05,1.05,0,0,0-1.05,1.05v4.2a1.05,1.05,0,0,0,1.05,1.05Zm1.05-4.2h2.1v2.1h-2.1Z" transform="translate(-30.8 -261.8)" fill="#1f7fa0"/>
    <path id="Path_84" data-name="Path 84" d="M197.75,315h-4.2a1.05,1.05,0,0,0-1.05,1.05v4.2a1.05,1.05,0,0,0,1.05,1.05h4.2a1.05,1.05,0,0,0,1.05-1.05v-4.2a1.05,1.05,0,0,0-1.05-1.05Zm-1.05,4.2h-2.1v-2.1h2.1Z" transform="translate(-92.4 -261.8)" fill="#1f7fa0"/>
    <path id="Path_85" data-name="Path 85" d="M267.75,315h-4.2a1.05,1.05,0,0,0-1.05,1.05v4.2a1.05,1.05,0,0,0,1.05,1.05h4.2a1.05,1.05,0,0,0,1.05-1.05v-4.2a1.05,1.05,0,0,0-1.05-1.05Zm-1.05,4.2h-2.1v-2.1h2.1Z" transform="translate(-154 -261.8)" fill="#1f7fa0"/>
    <path id="Path_86" data-name="Path 86" d="M123.55,391.3h4.2a1.05,1.05,0,0,0,1.05-1.05v-4.2a1.05,1.05,0,0,0-1.05-1.05h-4.2a1.05,1.05,0,0,0-1.05,1.05v4.2a1.05,1.05,0,0,0,1.05,1.05Zm1.05-4.2h2.1v2.1h-2.1Z" transform="translate(-30.8 -323.4)" fill="#1f7fa0"/>
    <path id="Path_87" data-name="Path 87" d="M197.75,385h-4.2a1.05,1.05,0,0,0-1.05,1.05v4.2a1.05,1.05,0,0,0,1.05,1.05h4.2a1.05,1.05,0,0,0,1.05-1.05v-4.2a1.05,1.05,0,0,0-1.05-1.05Zm-1.05,4.2h-2.1v-2.1h2.1Z" transform="translate(-92.4 -323.4)" fill="#1f7fa0"/>
    <path id="Path_88" data-name="Path 88" d="M267.75,385h-4.2a1.05,1.05,0,0,0-1.05,1.05v12.6a1.05,1.05,0,0,0,1.05,1.05h4.2a1.05,1.05,0,0,0,1.05-1.05v-12.6a1.05,1.05,0,0,0-1.05-1.05Zm-1.05,12.6h-2.1V387.1h2.1Z" transform="translate(-154 -323.4)" fill="#1f7fa0"/>
    <path id="Path_89" data-name="Path 89" d="M123.55,461.3h4.2a1.05,1.05,0,0,0,1.05-1.05v-4.2a1.05,1.05,0,0,0-1.05-1.05h-4.2a1.05,1.05,0,0,0-1.05,1.05v4.2a1.05,1.05,0,0,0,1.05,1.05Zm1.05-4.2h2.1v2.1h-2.1Z" transform="translate(-30.8 -385)" fill="#1f7fa0"/>
    <path id="Path_90" data-name="Path 90" d="M197.75,455h-4.2a1.05,1.05,0,0,0-1.05,1.05v4.2a1.05,1.05,0,0,0,1.05,1.05h4.2a1.05,1.05,0,0,0,1.05-1.05v-4.2a1.05,1.05,0,0,0-1.05-1.05Zm-1.05,4.2h-2.1v-2.1h2.1Z" transform="translate(-92.4 -385)" fill="#1f7fa0"/>
    <path id="Path_91" data-name="Path 91" d="M262.5,245h2.1v2.1h-2.1Z" transform="translate(-154 -200.2)" fill="#1f7fa0"/>
    <path id="Path_92" data-name="Path 92" d="M227.5,245h2.1v2.1h-2.1Z" transform="translate(-123.2 -200.2)" fill="#1f7fa0"/>
    <path id="Path_93" data-name="Path 93" d="M192.5,245h2.1v2.1h-2.1Z" transform="translate(-92.4 -200.2)" fill="#1f7fa0"/>
    <path id="Path_94" data-name="Path 94" d="M370.65,227.5a3.15,3.15,0,0,0-3.15,3.15V261.1a1.06,1.06,0,0,0,.176.583l2.1,3.15a1.05,1.05,0,0,0,1.747,0l2.1-3.15a1.06,1.06,0,0,0,.176-.583V233.8h1.05a1.05,1.05,0,0,1,1.05,1.05v9.45H378v-9.45a3.15,3.15,0,0,0-3.15-3.15H373.8v-1.05a3.15,3.15,0,0,0-3.15-3.15Zm0,2.1a1.05,1.05,0,0,1,1.05,1.05v1.05h-2.1v-1.05A1.05,1.05,0,0,1,370.65,229.6Zm1.05,31.185-1.05,1.575-1.05-1.575V245.351h2.1Zm0-17.534h-2.1V233.8h2.1Z" transform="translate(-246.401 -184.8)" fill="#1f7fa0"/>
  </g>
</svg>
