<svg xmlns="http://www.w3.org/2000/svg" width="63.064" height="63" viewBox="0 0 63.064 63">
  <g id="noun-taxation-2946677" transform="translate(-78.963 -8.962)">
    <path id="Path_102" data-name="Path 102" d="M90.146,57.658v-22.3a1.027,1.027,0,0,0-1.04-1.04H85.529a1.027,1.027,0,0,0-1.04,1.04v22.3a1.027,1.027,0,0,0,1.04,1.04h3.576A1.027,1.027,0,0,0,90.146,57.658Zm-2.015-.975h-1.5V36.4h1.5Zm42.585-21.325v22.3a1.027,1.027,0,0,0,1.04,1.04h3.576a1.027,1.027,0,0,0,1.04-1.04v-22.3a1.027,1.027,0,0,0-1.04-1.04h-3.576A1.027,1.027,0,0,0,130.715,35.358Zm2.015,1.04h1.5V56.683h-1.5Zm-22.3,4.031A4.031,4.031,0,1,0,106.4,36.4,4.051,4.051,0,0,0,110.43,40.429Zm0-6.112a2.015,2.015,0,1,1-2.015,2.015A2.026,2.026,0,0,1,110.43,34.317ZM140.857,23.2h-7.087V20.144a1.027,1.027,0,0,0-1.04-1.04h-3.576V16.568a1.027,1.027,0,0,0-1.04-1.04h-8.582c-.65-3.9-5.006-6.566-9.1-6.566-4.226,0-8.907,2.666-9.557,6.566H92.161a1.027,1.027,0,0,0-1.04,1.04V19.1H88.065a1.027,1.027,0,0,0-1.04,1.04V23.2H80a1.027,1.027,0,0,0-1.04,1.04v3.576A1.027,1.027,0,0,0,80,28.857h1.04V70.921a1.027,1.027,0,0,0,1.04,1.04h56.823a1.027,1.027,0,0,0,1.04-1.04V28.792h1.04a1.027,1.027,0,0,0,1.04-1.04V24.175a1.249,1.249,0,0,0-1.17-.975ZM93.2,17.609h8.582a1.027,1.027,0,0,0,1.04-1.04c0-3.186,4.031-5.591,7.672-5.591,3.446,0,7.152,2.21,7.152,5.591a1.027,1.027,0,0,0,1.04,1.04h8.582v1.5H93.2Zm-4.1,3.575H131.69V23.2H89.105ZM86.114,67.8v2.015H83.059V28.791H88.65v2.015a1.027,1.027,0,0,0,1.04,1.04h2.015V66.825H87.155a1.014,1.014,0,0,0-1.04.975Zm14.173-39.009v1.04H90.665v-1.04Zm18.269,0v2.015a1.027,1.027,0,0,0,1.04,1.04h2.015V66.825h-1.04V64.809a1.027,1.027,0,0,0-1.04-1.04h-1.3V46.215a.978.978,0,0,0-.65-.91,20.32,20.32,0,0,0-14.3,0,.978.978,0,0,0-.65.91V63.769h-1.3a1.027,1.027,0,0,0-1.04,1.04v2.015h-1.04V31.781h2.081a1.027,1.027,0,0,0,1.04-1.04V28.726h16.189Zm11.638,0v1.04h-9.622v-1.04Zm-6.566,38.034V31.782H127.2V66.76h-3.576Zm-21.325,0v-1.04h16.254v1.04Zm13.848-3.056H104.708V46.93a18.438,18.438,0,0,1,11.443,0Zm-22.43,3.056V31.782H97.3V66.76H93.721ZM88.13,68.84h44.6v1.04H88.13Zm49.671.975h-3.056V67.8a1.027,1.027,0,0,0-1.04-1.04h-4.551V31.782h2.08a1.027,1.027,0,0,0,1.04-1.04V28.726h5.591V69.816Zm2.015-43.1H80.979v-1.5h58.838Z" fill="#1f7fa0"/>
  </g>
</svg>
