<svg xmlns="http://www.w3.org/2000/svg" width="59.537" height="63" viewBox="0 0 59.537 63">
  <g id="noun-court-4165525" transform="translate(-85.392 0.007)">
    <path id="Path_113" data-name="Path 113" d="M195.831,39.368l-1.85-1.575L173.506,20.449l2.747-2.736.1.108a1.437,1.437,0,0,0,1.969,0l4.469-4.479h0a2.293,2.293,0,0,0,.689-1.663,2.333,2.333,0,0,0-.679-1.664L173.506.683a2.388,2.388,0,0,0-3.357,0l-4.518,4.479a1.378,1.378,0,0,0,0,1.969l.1.108L152.835,20.182l-.1-.108a1.418,1.418,0,0,0-1.969,0l-4.5,4.528a2.372,2.372,0,0,0,0,3.327l9.361,9.351h0a2.342,2.342,0,0,0,3.317,0l4.479-4.479a1.4,1.4,0,0,0,0-1.969l-.1-.108,2.717-2.717,18.91,22.257a7.4,7.4,0,0,0,5.355,2.5h.226a7.875,7.875,0,0,0,7.816-8.042,7.373,7.373,0,0,0-2.52-5.355ZM171.8,3.006l8.692,8.692-3.14,3.15-.108-.088-8.485-8.505-.1-.1Zm-14.51,31.9L148.6,26.217l3.15-3.15,8.584,8.593.1.1Zm4.036-6.241-6.526-6.5L167.767,9.246l6.487,6.5Zm23.113,16.606-16.4-19.333,3.494-3.484,19.362,16.4Zm9.617,3.16A5.088,5.088,0,0,1,190.4,49.9a4.614,4.614,0,0,1-3.317-1.516l-.807-.984,6.782-6.782.984.778h0a4.626,4.626,0,0,1,1.546,3.337,5.02,5.02,0,0,1-1.526,3.741Z" transform="translate(-53.424 0)" fill="#1f7fa0"/>
    <path id="Path_114" data-name="Path 114" d="M114.756,425.807h-.266v-4.922a1.408,1.408,0,0,0-1.408-1.408H91.85a1.408,1.408,0,0,0-1.408,1.408v4.922h-.266a4.794,4.794,0,0,0-4.784,4.794v3.278a1.408,1.408,0,0,0,1.408,1.408h31.313a1.407,1.407,0,0,0,1.408-1.408V430.6a4.794,4.794,0,0,0-4.764-4.794Zm-21.5-3.554h18.417v3.553H93.258Zm23.467,10.218H88.179V430.6a1.969,1.969,0,0,1,1.969-1.969h24.609a1.969,1.969,0,0,1,1.969,1.969Z" transform="translate(0 -372.293)" fill="#1f7fa0"/>
  </g>
</svg>
