<svg xmlns="http://www.w3.org/2000/svg" width="54" height="63" viewBox="0 0 54 63">
  <path id="Path_115" data-name="Path 115" d="M234.875,84h-42.75A1.125,1.125,0,0,0,191,85.125V93h-7.875A1.125,1.125,0,0,0,182,94.125v51.75A1.125,1.125,0,0,0,183.125,147h42.75A1.125,1.125,0,0,0,227,145.875V138h7.875A1.125,1.125,0,0,0,236,136.875V85.125A1.125,1.125,0,0,0,234.875,84ZM224.75,144.75h-40.5V95.25h40.5Zm9-9H227V94.125A1.125,1.125,0,0,0,225.875,93H193.25V86.25h40.5Z" transform="translate(-182 -84)" fill="#1f7fa0"/>
</svg>
