<svg xmlns="http://www.w3.org/2000/svg" width="76.624" height="63" viewBox="0 0 76.624 63">
  <path id="noun-description-2303077" d="M70.282,39.358c-4.624,7.813-7.455,12.593-7.612,12.863a4.375,4.375,0,0,1-.374.528c-.1.118-.206.222-.3.314l-8.205,4.812.264-9.394a3.253,3.253,0,0,1,.151-.547,3.483,3.483,0,0,1,.28-.578c.151-.259,10.544-17.821,23.5-39.7a1.106,1.106,0,0,1,1.012.151l6.568,3.889a1.164,1.164,0,0,1,.627.789ZM90.319,10.806a4.587,4.587,0,0,1-.308,3.939l-15.9,26.876c-4.619,7.8-7.444,12.578-7.6,12.846a8.842,8.842,0,0,1-.836,1.174,8.18,8.18,0,0,1-.936.928l-.306.217-9.784,5.74a3.724,3.724,0,0,1-1.809.47,3.457,3.457,0,0,1-1.785-.489A3.594,3.594,0,0,1,49.3,59.432l.34-11.517a7.819,7.819,0,0,1,.4-1.529,7.926,7.926,0,0,1,.614-1.278c.125-.215,10.531-17.8,23.518-39.739a4.6,4.6,0,0,1,3.309-2.164,5.772,5.772,0,0,1,3.777.774l6.568,3.889a5.747,5.747,0,0,1,2.5,2.938ZM46.045,37.6a2.222,2.222,0,0,1,0,4.443H25.177a2.222,2.222,0,1,1,0-4.443ZM25.177,28.628H51.342a2.222,2.222,0,0,1,0,4.444H25.177a2.222,2.222,0,0,1,0-4.444Zm17.5,29.231a2.222,2.222,0,0,1,0,4.444H18.922a5.18,5.18,0,0,1-3.78-1.769A5.032,5.032,0,0,1,14,57.378V4.924a4.951,4.951,0,0,1,1.09-3.142A5.136,5.136,0,0,1,18.922,0h29.4a1.991,1.991,0,0,1,.531.089,1.89,1.89,0,0,1,.743.452q6.383,6.391,12.764,12.78a2.218,2.218,0,0,1,.285,2.786l-1.4,2.361A2.209,2.209,0,0,1,59.3,19.625q-8.873,0-17.747-.005a2.31,2.31,0,0,1-1.7-.781,2.254,2.254,0,0,1-.517-1.44V11.109a2.222,2.222,0,1,1,4.443,0v4.067H57.947L47.212,4.441H18.921a.48.48,0,0,0-.321.115.5.5,0,0,0-.16.368V57.379a.5.5,0,0,0,.162.358.475.475,0,0,0,.319.123Z" transform="translate(-13.997 0.003)" fill="#1f7fa0" fill-rule="evenodd"/>
</svg>
